<mxfile host="65bd71144e">
    <diagram id="d7pFsMbV_boStTqUdoP3" name="Page-1">
        <mxGraphModel dx="600" dy="573" grid="1" gridSize="10" guides="1" tooltips="1" connect="1" arrows="1" fold="1" page="0" pageScale="1" pageWidth="850" pageHeight="1100" math="0" shadow="0">
            <root>
                <mxCell id="0"/>
                <mxCell id="1" parent="0"/>
                <mxCell id="4" style="edgeStyle=orthogonalEdgeStyle;html=1;exitX=1;exitY=0.25;exitDx=0;exitDy=0;entryX=0.003;entryY=0.646;entryDx=0;entryDy=0;entryPerimeter=0;strokeWidth=2;strokeColor=default;jumpStyle=none;rounded=0;curved=1;" edge="1" parent="1" source="2" target="3">
                    <mxGeometry relative="1" as="geometry"/>
                </mxCell>
                <mxCell id="2" value="User" style="rounded=0;whiteSpace=wrap;html=1;" vertex="1" parent="1">
                    <mxGeometry x="30" y="100" width="120" height="60" as="geometry"/>
                </mxCell>
                <mxCell id="3" value="Email" style="ellipse;whiteSpace=wrap;html=1;rounded=0;" vertex="1" parent="1">
                    <mxGeometry x="280" y="10" width="120" height="80" as="geometry"/>
                </mxCell>
                <mxCell id="10" value="" style="edgeStyle=orthogonalEdgeStyle;jumpStyle=none;html=1;strokeColor=default;strokeWidth=2;rounded=0;curved=1;" edge="1" parent="1" source="5" target="2">
                    <mxGeometry relative="1" as="geometry"/>
                </mxCell>
                <mxCell id="5" value="Password" style="triangle;whiteSpace=wrap;html=1;direction=north;rounded=0;" vertex="1" parent="1">
                    <mxGeometry x="70" y="260" width="190" height="100" as="geometry"/>
                </mxCell>
            </root>
        </mxGraphModel>
    </diagram>
</mxfile>